<?xml version="1.0" standalone="no"?>
<!DOCTYPE svg PUBLIC "-//W3C//DTD SVG 20010904//EN"
 "http://www.w3.org/TR/2001/REC-SVG-20010904/DTD/svg10.dtd">
<svg version="1.0" xmlns="http://www.w3.org/2000/svg"
 width="798.000000pt" height="194.000000pt" viewBox="0 0 798.000000 294.000000"
 preserveAspectRatio="xMidYMid meet">

<g transform="translate(0.000000,294.000000) scale(0.100000,-0.100000)"
fill="#000000" stroke="none">
<path d="M4900 1610 l0 -730 130 0 130 0 0 730 0 730 -130 0 -130 0 0 -730z"/>
<path d="M1131 2294 c-134 -28 -243 -110 -304 -227 -30 -58 -32 -68 -32 -167
0 -98 2 -109 30 -158 48 -89 109 -134 311 -232 202 -99 238 -129 250 -206 25
-167 -174 -242 -381 -143 -33 16 -89 51 -125 78 -49 38 -68 47 -76 38 -6 -7
-39 -58 -73 -115 l-63 -102 24 -20 c82 -71 193 -130 300 -160 88 -24 283 -28
365 -6 142 38 249 120 299 229 23 52 29 79 32 162 5 120 -16 187 -78 258 -64
72 -144 118 -428 242 -78 35 -122 82 -122 131 0 46 22 87 65 120 74 56 238 38
354 -40 l51 -35 14 22 c7 12 34 61 60 110 l46 87 -60 39 c-74 48 -183 88 -275
101 -88 12 -105 12 -184 -6z"/>
<path d="M6570 1915 l0 -164 -57 -3 -58 -3 0 -95 0 -95 57 -3 57 -3 3 -242 c3
-229 4 -245 27 -294 27 -62 92 -125 145 -143 84 -27 306 6 306 46 0 8 -14 57
-30 109 l-31 95 -29 -15 c-41 -21 -67 -19 -95 10 -25 24 -25 25 -25 230 l0
205 95 0 95 0 0 100 0 100 -95 0 -95 0 0 165 0 165 -135 0 -135 0 0 -165z"/>
<path d="M2231 1770 c-130 -28 -272 -137 -330 -254 -42 -85 -58 -186 -43 -266
28 -153 126 -280 269 -348 73 -35 85 -37 191 -41 96 -3 123 0 181 19 38 12 83
30 100 41 l31 19 -45 89 -45 90 -42 -19 c-133 -57 -267 -19 -335 97 -23 40
-27 58 -27 118 0 80 16 119 72 177 64 67 195 88 281 45 19 -9 38 -17 42 -17 4
0 28 38 52 85 48 92 48 94 -11 124 -76 40 -249 60 -341 41z"/>
<path d="M3070 1765 c-149 -42 -265 -167 -301 -322 -27 -119 -6 -278 48 -372
85 -147 213 -216 387 -209 102 4 173 30 238 87 20 17 37 31 39 31 2 0 4 -21 4
-47 l0 -48 133 -3 132 -3 0 436 0 436 -132 -3 -133 -3 0 -43 c0 -23 -2 -42 -3
-42 -2 0 -22 16 -45 35 -84 72 -248 103 -367 70z m318 -250 c81 -54 121 -169
93 -273 -13 -47 -68 -115 -111 -137 -40 -21 -120 -28 -166 -16 -104 28 -165
112 -165 224 0 105 42 179 126 219 61 29 166 21 223 -17z"/>
<path d="M4505 1771 c-50 -13 -98 -41 -142 -84 l-43 -41 0 52 0 52 -135 0
-135 0 0 -435 0 -436 133 3 132 3 5 272 c6 306 3 297 89 358 37 26 51 30 104
29 37 0 75 -7 94 -17 18 -9 36 -17 41 -17 5 0 24 33 42 73 19 39 42 89 52 110
l18 38 -46 20 c-49 22 -161 33 -209 20z"/>
<path d="M5760 1770 c-72 -15 -183 -75 -237 -129 -91 -89 -133 -192 -134 -323
0 -133 38 -227 130 -318 102 -100 204 -140 361 -140 111 0 174 15 259 60 60
32 161 129 161 154 0 6 -42 32 -93 58 l-92 46 -46 -42 c-123 -111 -325 -80
-390 59 -10 22 -19 50 -19 63 l0 22 331 0 331 0 -4 93 c-3 77 -9 103 -34 157
-52 111 -123 176 -239 219 -68 26 -212 36 -285 21z m193 -204 c31 -13 97 -78
97 -96 0 -4 3 -15 6 -24 5 -14 -15 -16 -190 -16 -150 0 -196 3 -196 13 1 33
48 93 90 115 51 26 142 30 193 8z"/>
</g>
</svg>
